<?xml version="1.0" encoding="UTF-8" standalone="no"?>
<!-- Created with Inkscape (http://www.inkscape.org/) -->

<svg
   xmlns:dc="http://purl.org/dc/elements/1.1/"
   xmlns:cc="http://creativecommons.org/ns#"
   xmlns:rdf="http://www.w3.org/1999/02/22-rdf-syntax-ns#"
   xmlns:svg="http://www.w3.org/2000/svg"
   xmlns="http://www.w3.org/2000/svg"
   xmlns:sodipodi="http://sodipodi.sourceforge.net/DTD/sodipodi-0.dtd"
   xmlns:inkscape="http://www.inkscape.org/namespaces/inkscape"
   id="svg4333"
   version="1.1"
   inkscape:version="0.91 r13725"
   width="512"
   height="512"
   viewBox="0 0 512 512"
   sodipodi:docname="md-geomedis-bag.svg">
  <metadata
     id="metadata4339">
    <rdf:RDF>
      <cc:Work
         rdf:about="">
        <dc:format>image/svg+xml</dc:format>
        <dc:type
           rdf:resource="http://purl.org/dc/dcmitype/StillImage" />
        <dc:title></dc:title>
      </cc:Work>
    </rdf:RDF>
  </metadata>
  <defs
     id="defs4337" />
  <sodipodi:namedview
     pagecolor="#ffffff"
     bordercolor="#666666"
     borderopacity="1"
     objecttolerance="10"
     gridtolerance="10"
     guidetolerance="10"
     inkscape:pageopacity="0"
     inkscape:pageshadow="2"
     inkscape:window-width="1445"
     inkscape:window-height="1233"
     id="namedview4335"
     showgrid="false"
     inkscape:zoom="0.73657929"
     inkscape:cx="-8.4851693"
     inkscape:cy="40.049999"
     inkscape:window-x="1440"
     inkscape:window-y="0"
     inkscape:window-maximized="0"
     inkscape:current-layer="svg4333" />
  <path
     style="fill:#a6a6a6"
     d="m 135.84625,471.92295 c -12.00849,-3.74157 -26.8108,-16.88956 -33.68461,-29.92006 L 96.712352,431.6729 96.090295,360.5425 c -0.491162,-56.16341 3.96e-4,-74.40642 2.336106,-86.69931 8.909839,-46.89277 36.264229,-82.60193 79.440529,-103.7038 15.14968,-7.40419 20.6667,-11.09865 20.6667,-13.83929 0,-2.05626 -2.72195,-16.5046 -6.04879,-32.10731 -3.32683,-15.60272 -6.04879,-30.590878 -6.04879,-33.306988 0,-2.71611 2.63129,-7.88332 5.84731,-11.48268 5.00517,-5.60172 7.54608,-6.69527 17.6423,-7.59278 l 11.795,-1.04852 1.10064,-9.073187 c 2.21083,-18.225136 10.30653,-24.195156 32.8102,-24.195156 22.94253,0 30.73317,5.588476 33.35496,23.926657 l 1.33557,9.341686 10.67898,1.30633 c 12.01313,1.46952 17.41745,5.3308 20.38323,14.56354 1.61436,5.02567 0.62941,12.87135 -4.84208,38.569228 -5.28624,24.82793 -6.31631,32.78612 -4.47104,34.54295 1.31869,1.25553 7.01177,3.77404 12.65128,5.59661 23.70206,7.66012 56.18101,35.16376 71.04367,60.16079 17.73642,29.83034 21.09394,53.23042 20.17993,140.64308 l -0.66409,63.51229 -5.62556,11.4556 c -6.09909,12.41991 -14.85123,21.21875 -28.20289,28.35323 l -8.51307,4.54895 -113.91886,0.39654 c -93.97115,0.32663 -115.5397,-0.10888 -123.17527,-2.4878 z m 240.02901,-19.07929 c 4.94099,-2.77236 11.74588,-8.97344 15.12196,-13.78021 l 6.13831,-8.73956 0.57551,-73.30501 c 0.4794,-61.06569 0.045,-75.59709 -2.60198,-87.03294 -9.7178,-41.98444 -41.11305,-76.24592 -83.1033,-90.69023 -13.91855,-4.78788 -19.42698,-5.48907 -48.9517,-6.23126 -40.21814,-1.01102 -55.76907,1.67296 -80.58227,13.90785 -31.56807,15.56568 -56.88428,46.95177 -65.57937,81.30285 -2.43526,9.6208 -3.04183,26.62401 -3.04183,85.26742 0,68.91184 0.23536,73.71169 3.974,81.04 5.18303,10.15961 16.96234,19.72671 27.18902,22.08278 4.59216,1.058 54.83444,1.7346 115.01605,1.54883 l 106.86194,-0.32999 8.98366,-5.04066 z M 154.74164,433.93051 c -7.55416,-6.92022 -7.62272,-7.12258 -7.62272,-22.49934 0,-13.69298 0.51576,-15.86134 4.3888,-18.45184 3.9608,-2.64916 4.79646,-2.52778 8.56912,1.24491 3.1931,3.19309 4.18032,6.74091 4.18032,15.02291 0,6.36998 1.0684,11.72921 2.59007,12.99213 1.42453,1.18227 7.90868,2.42751 14.40921,2.76718 13.19982,0.68983 18.1529,4.64467 14.03057,11.20303 -1.73423,2.75906 -5.56562,3.65663 -17.57026,4.1162 -15.04309,0.57598 -15.50598,0.44694 -22.97511,-6.39518 z m 16.79667,-105.22978 c -2.42619,-6.32253 -1.37234,-76.53687 1.18715,-79.09638 2.81483,-2.81484 160.08538,-3.51321 164.47007,-0.73036 1.96537,1.2474 2.43621,11.01001 2.01626,41.80661 l -0.54788,40.17915 -82.94662,0.52624 c -74.32652,0.47181 -83.0747,0.19222 -84.17898,-2.68526 z m 148.97924,-38.16624 0,-24.19516 -65.52855,0 -65.52855,0 -0.57329,23.02525 c -0.42476,17.05833 0.0978,23.45519 2.01626,24.68437 1.42427,0.9125 31.1701,1.43901 66.10185,1.16991 l 63.51229,-0.48928 0,-24.19516 z m -95.4287,-165.31697 c -0.36542,-16.56407 -1.53146,-31.736648 -2.59127,-33.716958 -2.07691,-3.8807 -10.86947,-4.80684 -15.83294,-1.66765 -2.55917,1.61852 -2.1816,5.90039 2.7974,31.725228 5.97516,30.99164 7.691,35.50666 13.08133,34.42184 2.79971,-0.56321 3.12493,-4.49391 2.54548,-30.76246 z M 293.298,153.2378 c 0,-0.42208 2.79127,-13.98514 6.20281,-30.14011 4.89371,-23.173448 5.69267,-29.987278 3.78565,-32.285148 -2.97068,-3.5794 -10.77797,-3.80489 -13.58114,-0.39182 -2.84047,3.45816 -6.46565,60.301448 -4.04285,63.392448 1.62136,2.06855 7.63553,1.61563 7.63553,-0.57531 z m -27.21044,-1.3214 c 2.08366,-5.89602 6.25384,-89.476908 4.62756,-92.748093 -2.28944,-4.605145 -25.99443,-5.13764 -29.70451,-0.667383 -2.25465,2.716712 -0.85461,40.882828 3.0569,83.334026 l 1.16114,12.60165 9.98411,0 c 6.16807,0 10.32454,-0.9633 10.8748,-2.52033 z"
     id="path4883"
     inkscape:connector-curvature="0" />
</svg>
