<svg id="Ebene_1" data-name="Ebene 1" xmlns="http://www.w3.org/2000/svg" viewBox="0 0 102.58 15"><defs><style>.cls-1,.cls-2{fill:#fff;}.cls-2{fill-rule:evenodd;}</style></defs><title>logo-hallesche4y-full</title><path class="cls-1" d="M246,415.38h2V420a4.84,4.84,0,0,1,.46-0.58,2.91,2.91,0,0,1,.58-0.48,3,3,0,0,1,.73-0.34,3.06,3.06,0,0,1,.9-0.12,2.85,2.85,0,0,1,2.25.89,3.48,3.48,0,0,1,.79,2.4v5.44h-2v-4.85a2.26,2.26,0,0,0-.47-1.54,1.69,1.69,0,0,0-1.34-.54,1.82,1.82,0,0,0-1.38.56,2.17,2.17,0,0,0-.53,1.56v4.82h-2V415.38h0Z" transform="translate(-246 -413.99)"/><path class="cls-1" d="M261.59,423.62a5,5,0,0,0-.88-0.24,5.75,5.75,0,0,0-1.08-.1,2.52,2.52,0,0,0-1.44.36,1.12,1.12,0,0,0-.52,1v0a1.06,1.06,0,0,0,.48.94,2,2,0,0,0,1.17.32,3,3,0,0,0,.9-0.13,2.32,2.32,0,0,0,.72-0.36,1.66,1.66,0,0,0,.48-0.57,1.59,1.59,0,0,0,.17-0.74v-0.49h0Zm0,3.58v-1.05a3.66,3.66,0,0,1-1.12.87,3.52,3.52,0,0,1-1.65.36,3.93,3.93,0,0,1-1.17-.17,2.87,2.87,0,0,1-1-.5,2.44,2.44,0,0,1-.92-2v0a2.78,2.78,0,0,1,.26-1.24,2.42,2.42,0,0,1,.72-0.87,3.15,3.15,0,0,1,1.1-.52,5.38,5.38,0,0,1,1.38-.17,7.62,7.62,0,0,1,1.32.1,8,8,0,0,1,1,.26V422.1a1.7,1.7,0,0,0-.54-1.36,2.32,2.32,0,0,0-1.56-.47,5.22,5.22,0,0,0-1.3.15,8.5,8.5,0,0,0-1.15.39l-0.53-1.57a9,9,0,0,1,1.46-.52,7.21,7.21,0,0,1,1.8-.19,3.8,3.8,0,0,1,2.83.95,3.66,3.66,0,0,1,.92,2.66v5.07h-1.94Z" transform="translate(-246 -413.99)"/><polygon class="cls-1" points="20.2 1.39 22.18 1.39 22.18 13.21 20.2 13.21 20.2 1.39 20.2 1.39"/><polygon class="cls-1" points="25.11 1.39 27.08 1.39 27.08 13.21 25.11 13.21 25.11 1.39 25.11 1.39"/><path class="cls-1" d="M281.76,422.33a3.35,3.35,0,0,0-.21-0.88,2.26,2.26,0,0,0-.44-0.71,2.08,2.08,0,0,0-.66-0.48,2,2,0,0,0-.87-0.18,2,2,0,0,0-1.5.62,2.82,2.82,0,0,0-.72,1.63h4.39Zm-1.94,5.07a4.56,4.56,0,0,1-1.73-.32,4.14,4.14,0,0,1-2.32-2.31,4.66,4.66,0,0,1-.34-1.81v0a4.84,4.84,0,0,1,.31-1.73,4.36,4.36,0,0,1,.87-1.42,4.08,4.08,0,0,1,1.32-1,4,4,0,0,1,1.68-.35,4.06,4.06,0,0,1,1.79.37,3.68,3.68,0,0,1,1.28,1,4.37,4.37,0,0,1,.77,1.47,5.89,5.89,0,0,1,.26,1.76q0,0.13,0,.27t0,0.28h-6.28a2.5,2.5,0,0,0,.83,1.61,2.46,2.46,0,0,0,1.63.56,2.87,2.87,0,0,0,1.26-.26,4.1,4.1,0,0,0,1.05-.76l1.15,1a4.73,4.73,0,0,1-1.47,1.17,4.4,4.4,0,0,1-2,.44h0Z" transform="translate(-246 -413.99)"/><path class="cls-1" d="M288.88,427.37A5.69,5.69,0,0,1,287,427a6,6,0,0,1-1.76-1l0.87-1.33a5.7,5.7,0,0,0,1.42.79,4,4,0,0,0,1.38.27,1.65,1.65,0,0,0,1-.25,0.79,0.79,0,0,0,.35-0.67v0a0.62,0.62,0,0,0-.15-0.42,1.29,1.29,0,0,0-.42-0.31,4.9,4.9,0,0,0-.62-0.24l-0.72-.23q-0.47-.13-0.95-0.31a3.44,3.44,0,0,1-.86-0.46,2.26,2.26,0,0,1-.62-0.7,2,2,0,0,1-.24-1v0a2.41,2.41,0,0,1,.88-1.91,2.93,2.93,0,0,1,1-.52,3.9,3.9,0,0,1,1.19-.18,5.36,5.36,0,0,1,1.64.26,5.88,5.88,0,0,1,1.51.72l-0.78,1.4a6.54,6.54,0,0,0-1.25-.59,3.58,3.58,0,0,0-1.17-.22,1.42,1.42,0,0,0-.88.24,0.74,0.74,0,0,0-.32.61v0a0.56,0.56,0,0,0,.16.4,1.6,1.6,0,0,0,.43.31,4.45,4.45,0,0,0,.62.26l0.72,0.23q0.47,0.15.94,0.34a3.94,3.94,0,0,1,.85.48,2.33,2.33,0,0,1,.62.69,1.88,1.88,0,0,1,.24,1v0a2.67,2.67,0,0,1-.24,1.18,2.31,2.31,0,0,1-.67.83,3.06,3.06,0,0,1-1,.5,4.44,4.44,0,0,1-1.25.17h0Z" transform="translate(-246 -413.99)"/><path class="cls-1" d="M298.29,427.4a4.42,4.42,0,0,1-3.17-1.3,4.33,4.33,0,0,1-.93-1.41,4.43,4.43,0,0,1-.33-1.72v0a4.49,4.49,0,0,1,.33-1.72,4.41,4.41,0,0,1,4.12-2.75,4.46,4.46,0,0,1,2,.4,4.76,4.76,0,0,1,1.4,1.07l-1.21,1.31a4.54,4.54,0,0,0-1-.77,2.44,2.44,0,0,0-1.26-.3,2.25,2.25,0,0,0-1,.22,2.45,2.45,0,0,0-.78.58,2.7,2.7,0,0,0-.51.87,3,3,0,0,0-.19,1.05v0A3,3,0,0,0,296,424a2.65,2.65,0,0,0,.53.87,2.53,2.53,0,0,0,.81.59,2.61,2.61,0,0,0,2.26-.08,4.7,4.7,0,0,0,1-.77l1.18,1.17a5.38,5.38,0,0,1-1.44,1.16,4.24,4.24,0,0,1-2.06.45h0Z" transform="translate(-246 -413.99)"/><path class="cls-1" d="M303.84,415.38h2V420a4.84,4.84,0,0,1,.46-0.58,2.91,2.91,0,0,1,.58-0.48,3,3,0,0,1,.73-0.34,3.06,3.06,0,0,1,.9-0.12,2.85,2.85,0,0,1,2.25.89,3.48,3.48,0,0,1,.79,2.4v5.44h-2v-4.85a2.26,2.26,0,0,0-.47-1.54,1.69,1.69,0,0,0-1.34-.54,1.82,1.82,0,0,0-1.38.56,2.17,2.17,0,0,0-.53,1.56v4.82h-2V415.38h0Z" transform="translate(-246 -413.99)"/><path class="cls-1" d="M320,422.33a3.35,3.35,0,0,0-.21-0.88,2.26,2.26,0,0,0-.44-0.71,2.08,2.08,0,0,0-.66-0.48,2,2,0,0,0-.87-0.18,2,2,0,0,0-1.5.62,2.82,2.82,0,0,0-.72,1.63H320Zm-1.94,5.07a4.56,4.56,0,0,1-1.73-.32,4.14,4.14,0,0,1-2.32-2.31,4.66,4.66,0,0,1-.34-1.81v0a4.84,4.84,0,0,1,.31-1.73,4.36,4.36,0,0,1,.87-1.42,4.08,4.08,0,0,1,1.32-1,4,4,0,0,1,1.68-.35,4.06,4.06,0,0,1,1.79.37,3.68,3.68,0,0,1,1.28,1,4.37,4.37,0,0,1,.77,1.47,5.89,5.89,0,0,1,.26,1.76q0,0.13,0,.27t0,0.28h-6.28a2.5,2.5,0,0,0,.83,1.61,2.46,2.46,0,0,0,1.63.56,2.87,2.87,0,0,0,1.26-.26,4.1,4.1,0,0,0,1.05-.76l1.15,1A4.73,4.73,0,0,1,320.1,427a4.4,4.4,0,0,1-2,.44h0Z" transform="translate(-246 -413.99)"/><path class="cls-2" d="M343.94,427.38a2.85,2.85,0,0,1-2.25-.89,3.48,3.48,0,0,1-.79-2.4v-5.44h2v4.85a2.26,2.26,0,0,0,.47,1.54,1.69,1.69,0,0,0,1.34.54,1.82,1.82,0,0,0,1.38-.56,2.17,2.17,0,0,0,.53-1.56v-4.82h2v8.55h-2v-1.34a4.2,4.2,0,0,1-1.05,1.07,2.71,2.71,0,0,1-1.61.45h0Zm-12-2.72H326.2l-0.37-1.43,6.3-7.45h1.7V423h1.62v1.64h-1.62v2.54h-1.91v-2.54h0Zm0-1.64v-4.49L328.19,423h3.73Zm-1.28-9a7.5,7.5,0,1,0,7.5,7.5,7.5,7.5,0,0,0-7.5-7.5h0Z" transform="translate(-246 -413.99)"/></svg>