<?xml version="1.0" encoding="UTF-8" standalone="no"?>
<svg
   xmlns:dc="http://purl.org/dc/elements/1.1/"
   xmlns:cc="http://creativecommons.org/ns#"
   xmlns:rdf="http://www.w3.org/1999/02/22-rdf-syntax-ns#"
   xmlns:svg="http://www.w3.org/2000/svg"
   xmlns="http://www.w3.org/2000/svg"
   viewBox="0 0 512 512"
   height="512"
   width="512"
   version="1.1"
   id="svg4333">
  <metadata
     id="metadata4339">
    <rdf:RDF>
      <cc:Work
         rdf:about="">
        <dc:format>image/svg+xml</dc:format>
        <dc:type
           rdf:resource="http://purl.org/dc/dcmitype/StillImage" />
        <dc:title></dc:title>
      </cc:Work>
    </rdf:RDF>
  </metadata>
  <defs
     id="defs4337" />
  <path
     id="path5807"
     d="M 288.39453 136.25977 A 58.893188 58.893188 0 0 0 229.50195 195.15234 A 58.893188 58.893188 0 0 0 288.39453 254.04688 A 58.893188 58.893188 0 0 0 347.28711 195.15234 A 58.893188 58.893188 0 0 0 288.39453 136.25977 z M 375.76172 203.81836 C 373.83038 217.40128 371.92487 225.06413 367.28711 237.98633 C 361.74721 253.46247 357.56644 261.97464 348.39258 275.62109 C 337.30007 292.13913 329.98261 300.95835 313.79492 313.10547 C 294.06221 327.9463 276.50085 337.18331 252.68945 344.34961 C 273.22265 352.79922 284.50714 356.21758 305.82812 357.58984 C 320.74519 358.5301 329.43474 358.18712 344.07227 355.20117 C 362.10235 351.51638 371.89935 346.97935 387.94727 338.02148 C 405.64699 328.11066 413.58934 320.25819 429.00195 306.12891 C 446.38401 290.18264 454.65496 279.29326 467.56445 259.56055 C 474.34956 249.17959 480.67621 236.24461 487.0293 223.14453 C 492.84874 210.83223 494.61523 204.36523 494.61523 204.36523 C 470.96901 209.16817 458.64478 211.4554 433.25781 211.07422 C 411.70812 210.75656 397.37494 209.38368 375.76172 203.81836 z M 17.384766 245.01172 C 17.384766 245.01172 26.087453 260.29849 49.416016 285.78711 C 59.276019 296.56196 73.532227 311.14814 89.503906 321.75781 C 104.91651 333.14256 122.84484 343.89119 139.82031 351.22266 C 174.9021 367.3087 219.75524 378.3259 270.68164 375.21289 C 296.27191 373.66273 306.66602 369.3418 306.66602 369.3418 C 306.66602 369.3418 280.63148 367.35939 258.23047 358.21094 C 237.31608 349.9265 226.32533 341.28805 213.61914 332.20312 C 201.68803 323.63916 185.15597 305.41773 176.36328 292 C 165.28349 275.06265 161.17969 260.24805 161.17969 260.24805 C 161.17969 260.24805 138.44881 263.47437 121.81641 263.75391 C 104.21834 264.04615 79.428011 263.44857 60.851562 258.50586 C 38.577613 252.61019 17.384766 245.01172 17.384766 245.01172 z "
     style="clip-rule:evenodd;fill-rule:evenodd" />
</svg>
