<svg id="Ebene_1" data-name="Ebene 1" xmlns="http://www.w3.org/2000/svg" viewBox="0 0 12.88 15"><defs><style>.cls-1{fill:#fff;fill-rule:evenodd;}</style></defs><title>logo-hallesche4y</title><path class="cls-1" d="M293.74,425.57h-2.05a0.84,0.84,0,0,0-.84.84v2.05a0.84,0.84,0,0,0,.84.84h2.05a0.84,0.84,0,0,0,.84-0.84v-2.05a0.84,0.84,0,0,0-.84-0.84h0ZM300,424.5v4.8h3.73v-15H300v5.64h-4.59a0.84,0.84,0,0,1-.84-0.84v-4.8h-3.73v8.19a1.18,1.18,0,0,0,1.18,1.18h7.14a0.84,0.84,0,0,1,.84.84h0Z" transform="translate(-290.85 -414.3)"/></svg>