<?xml version="1.0" encoding="UTF-8"?>
<svg width="53px" height="40px" viewBox="0 0 53 40" version="1.1" xmlns="http://www.w3.org/2000/svg" xmlns:xlink="http://www.w3.org/1999/xlink">
    <!-- Generator: Sketch 48.2 (47327) - http://www.bohemiancoding.com/sketch -->
    <title>sda_se_logo</title>
    <desc>Created with Sketch.</desc>
    <defs></defs>
    <g id="Page-1" stroke="none" stroke-width="1" fill="none" fill-rule="evenodd">
        <g id="sda_se_logo" fill="#21C4F9" fill-rule="nonzero">
            <g id="Group">
                <circle id="Oval" cx="18.3" cy="5.7" r="3.2"></circle>
                <circle id="Oval" cx="46.2" cy="26.8" r="3.2"></circle>
                <circle id="Oval" cx="29.6" cy="36.8" r="3.2"></circle>
                <circle id="Oval" cx="48" cy="4.3" r="4.3"></circle>
                <circle id="Oval" cx="25.3" cy="21.3" r="5.5"></circle>
                <circle id="Oval" cx="4.3" cy="34.8" r="4.3"></circle>
                <rect id="Rectangle-path" transform="translate(21.867520, 12.353620) rotate(-25.606709) translate(-21.867520, -12.353620) " x="21.36751" y="4.8534697" width="1" height="15.0003006"></rect>
                <rect id="Rectangle-path" transform="translate(28.098530, 29.105560) rotate(-15.093810) translate(-28.098530, -29.105560) " x="27.5985304" y="23.8055642" width="1" height="10.5999916"></rect>
                <rect id="Rectangle-path" transform="translate(14.711420, 28.023860) rotate(-33.688478) translate(-14.711420, -28.023860) " x="5.71104876" y="27.5238394" width="18.0007425" height="1"></rect>
                <rect id="Rectangle-path" transform="translate(11.748505, 19.878930) rotate(-63.967894) translate(-11.748505, -19.878930) " x="-1.50225798" y="19.3789012" width="26.501526" height="1"></rect>
                <rect id="Rectangle-path" transform="translate(38.081000, 31.910940) rotate(-30.688638) translate(-38.081000, -31.910940) " x="30.7806052" y="31.410913" width="14.6007895" height="1"></rect>
                <rect id="Rectangle-path" transform="translate(37.787561, 12.214470) rotate(-35.676886) translate(-37.787561, -12.214470) " x="27.0878097" y="11.7144816" width="21.3995028" height="1"></rect>
                <rect id="Rectangle-path" transform="translate(47.520588, 15.971282) rotate(-86.079360) translate(-47.520588, -15.971282) " x="39.3202568" y="15.4712622" width="16.4006623" height="1"></rect>
                <rect id="Rectangle-path" transform="translate(37.218850, 23.883750) rotate(-73.225019) translate(-37.218850, -23.883750) " x="36.7188738" y="16.6340954" width="1" height="14.4993092"></rect>
            </g>
        </g>
    </g>
</svg>