<svg width="24px" height="24px" viewBox="0 0 24 24" version="1.1" xmlns="http://www.w3.org/2000/svg" xmlns:xlink="http://www.w3.org/1999/xlink">
    <!-- Generator: Sketch 50.2 (55047) - http://www.bohemiancoding.com/sketch -->
    <desc>Created with Sketch.</desc>
    <defs></defs>
    <g id="Symbols" stroke="none" stroke-width="1" fill="none" fill-rule="evenodd">
        <g id="Icons/Indicator/fin4u_c">
            <g id="Group">
                <path d="M0.00521378652,11.6496066 C0.198661365,5.02517859 5.72573505,-0.188233569 12.3499329,0.00521400645 C18.9745913,0.198431287 24.1882338,5.72550487 23.9947862,12.3499328 C23.8013386,18.9748214 18.2740347,24.1882336 11.6496066,23.994786 C5.02540875,23.8015687 -0.188233792,18.2744951 0.00521378652,11.6496066" id="Fill-1" fill="#E13F26"></path>
                <g id="Group-2" transform="translate(7.000000, 6.000000)">
                    <path d="M10.14071,3.29628279 C10.13306,3.45122233 10.07501,3.60035721 9.975785,3.74435721 C9.855185,3.91849674 9.67226,4.08258977 9.43376,4.23373395 C8.55986,4.78919442 6.96506,5.16225488 5.136935,5.16225488 C3.30836,5.16225488 1.71401,4.78919442 0.839885,4.23373395 C0.60206,4.08258977 0.419135,3.91849674 0.297185,3.74435721 C0.19256,3.59075721 0.130235,3.4311293 0.129335,3.26435721 L0.129335,4.39001302 L0.129335,4.39872 C0.129335,4.39916651 0.130235,4.40095256 0.130235,4.40117581 C0.137885,5.44936186 2.37551,6.29684093 5.136935,6.29684093 C7.90331,6.29684093 10.145435,5.44534326 10.145435,4.39492465 C10.145435,4.38264558 10.14071,4.37125953 10.14071,4.35942698 L10.14071,3.29628279 Z" id="Fill-28" fill="#FEFEFE"></path>
                    <path d="M10.14071,5.42223628 C10.13306,5.57650605 10.07501,5.72608744 9.975785,5.86986419 C9.855185,6.04400372 9.67226,6.20832 9.43376,6.35968744 C8.55986,6.91514791 6.96506,7.28865488 5.136935,7.28865488 C3.30836,7.28865488 1.71401,6.91514791 0.839885,6.35968744 C0.60206,6.20832 0.419135,6.04400372 0.297185,5.86986419 C0.19256,5.71559442 0.130235,5.55685953 0.129335,5.39075721 L0.129335,6.51663628 L0.129335,6.52512 C0.129335,6.52556651 0.130235,6.52668279 0.130235,6.52668279 C0.137885,7.57509209 2.37551,8.42279442 5.136935,8.42279442 C7.90331,8.42279442 10.145435,7.57107349 10.145435,6.52043163 C10.145435,6.50904558 10.14071,6.49698977 10.14071,6.4847107 L10.14071,5.42223628 Z" id="Fill-30" fill="#FEFEFE"></path>
                    <path d="M10.14071,7.54752 C10.13306,7.70223628 10.07501,7.85204093 9.975785,7.99581767 C9.855185,8.17018047 9.67226,8.33405023 9.43376,8.48541767 C8.55986,9.04043163 6.96506,9.4139386 5.136935,9.4139386 C3.30836,9.4139386 1.71401,9.04043163 0.839885,8.48541767 C0.60206,8.33405023 0.419135,8.17018047 0.297185,7.99581767 C0.19256,7.84221767 0.130235,7.68236651 0.129335,7.51581767 L0.129335,8.64236651 L0.129335,8.65085023 L0.130235,8.65285953 C0.137885,9.70082233 2.37551,10.5485247 5.136935,10.5485247 C7.90331,10.5485247 10.145435,9.69702698 10.145435,8.64660837 C10.145435,8.63477581 10.14071,8.62294326 10.14071,8.6111107 L10.14071,7.54752 Z" id="Fill-32" fill="#FEFEFE"></path>
                    <path d="M10.14071,9.67325023 C10.13306,9.82818977 10.07501,9.97799442 9.975785,10.1215479 C9.855185,10.2959107 9.67226,10.460227 9.43376,10.6104781 C8.55986,11.1666084 6.96506,11.5398921 5.136935,11.5398921 C3.30836,11.5398921 1.71401,11.1666084 0.839885,10.6104781 C0.60206,10.460227 0.419135,10.2959107 0.297185,10.1215479 C0.19256,9.9675014 0.130235,9.80809674 0.129335,9.64177116 L0.129335,10.76832 L0.129335,10.7768037 C0.129335,10.7768037 0.130235,10.7776967 0.130235,10.7785898 C0.137885,11.826106 2.37551,12.6740316 5.136935,12.6740316 C7.90331,12.6740316 10.145435,11.8229805 10.145435,10.7723386 C10.145435,10.7602828 10.14071,10.7488967 10.14071,10.7363944 L10.14071,9.67325023 Z" id="Fill-34" fill="#FEFEFE"></path>
                    <path d="M5.74817,3.56488186 C4.70192,3.56488186 3.74162,3.41396093 3.14447,3.13489116 C2.85602,3.00696558 2.64272,2.8446586 2.546645,2.64506791 L1.85252,2.64506791 L1.85252,2.37738419 L2.439545,2.37738419 L2.439545,2.31308651 C2.439545,2.27513302 2.45012,2.23829581 2.45012,2.19967256 L1.85252,2.19967256 L1.85252,1.93176558 L2.568245,1.93176558 C2.706395,1.72837953 2.96267,1.55535628 3.30467,1.41537488 C3.91262,1.1742586 4.76627,1.03115163 5.76977,1.03115163 C6.42092,1.03115163 6.986345,1.08339349 7.370645,1.14411907 L7.071395,1.57410977 C6.79397,1.53258419 6.356795,1.48279814 5.886545,1.48279814 C5.37467,1.48279814 4.90532,1.54330047 4.574345,1.68752372 C4.424495,1.74713302 4.307945,1.83442605 4.23257,1.93176558 L6.88982,1.93176558 L6.88982,2.19967256 L4.07282,2.19967256 C4.06202,2.23829581 4.06202,2.27915163 4.06202,2.31688186 L4.06202,2.37738419 L6.88982,2.37738419 L6.88982,2.64506791 L4.211645,2.64506791 C4.286795,2.75803535 4.403345,2.8446586 4.56287,2.90828651 C4.90532,3.04469581 5.406395,3.10117953 5.94032,3.10117953 C6.431495,3.10117953 6.93302,3.04469581 7.15667,3.00317023 L7.41317,3.42177488 C7.050695,3.49344 6.431495,3.56488186 5.74817,3.56488186 M5.136845,0.272974884 C2.37092,0.272974884 0.128795,1.1242493 0.128795,2.17489116 C0.128795,3.22530977 2.37092,4.07725395 5.136845,4.07725395 C7.90322,4.07725395 10.14557,3.22530977 10.14557,2.17489116 C10.14557,1.1242493 7.90322,0.272974884 5.136845,0.272974884" id="Fill-36" fill="#FFFFFF"></path>
                </g>
            </g>
        </g>
    </g>
</svg>
