<svg id="Ebene_1" data-name="Ebene 1" xmlns="http://www.w3.org/2000/svg" viewBox="0 0 97.7 113.82"><defs><style>.cls-1{fill:#fff;fill-rule:evenodd;}</style></defs><title>logo-4</title><path class="cls-1" d="M270.36,450.44H254.79a6.36,6.36,0,0,0-6.35,6.35v15.57a6.36,6.36,0,0,0,6.35,6.35h15.57a6.36,6.36,0,0,0,6.35-6.35V456.79a6.36,6.36,0,0,0-6.35-6.35h0Zm47.51-8.16v36.43h28.27V364.89H317.87v42.78H283.06a6.36,6.36,0,0,1-6.35-6.35V364.89H248.44V427a8.94,8.94,0,0,0,8.93,8.93h54.16a6.36,6.36,0,0,1,6.35,6.35h0Z" transform="translate(-248.44 -364.89)"/></svg>