<svg id="Ebene_1" data-name="Ebene 1" xmlns="http://www.w3.org/2000/svg" viewBox="0 0 324.58 47.46"><defs><style>.cls-1,.cls-2{fill:#fff;}.cls-2{fill-rule:evenodd;}</style></defs><title>header_logo</title><path class="cls-1" d="M135,402.15h6.25v14.6a15.31,15.31,0,0,1,1.46-1.84,9.22,9.22,0,0,1,1.84-1.52,9.43,9.43,0,0,1,2.3-1.07,9.69,9.69,0,0,1,2.84-.38,9,9,0,0,1,7.11,2.82,11,11,0,0,1,2.5,7.59v17.22H153V424.22a7.17,7.17,0,0,0-1.49-4.88,5.34,5.34,0,0,0-4.25-1.72,5.76,5.76,0,0,0-4.37,1.77,6.85,6.85,0,0,0-1.67,4.93v15.24H135V402.15h0Z" transform="translate(-135 -397.76)"/><path class="cls-1" d="M184.34,428.23a15.86,15.86,0,0,0-2.79-.77,18.2,18.2,0,0,0-3.41-.31,8,8,0,0,0-4.56,1.13,3.54,3.54,0,0,0-1.64,3.08v0.1a3.37,3.37,0,0,0,1.51,3,6.47,6.47,0,0,0,3.72,1,9.46,9.46,0,0,0,2.84-.41,7.34,7.34,0,0,0,2.28-1.15,5.24,5.24,0,0,0,1.51-1.79,5,5,0,0,0,.54-2.33v-1.54h0Zm-0.15,11.33v-3.33a11.59,11.59,0,0,1-3.54,2.77,11.15,11.15,0,0,1-5.23,1.13,12.43,12.43,0,0,1-3.69-.54,9.09,9.09,0,0,1-3-1.59,7.72,7.72,0,0,1-2.9-6.23v-0.1a8.78,8.78,0,0,1,.82-3.92,7.65,7.65,0,0,1,2.28-2.77,10,10,0,0,1,3.49-1.64,17,17,0,0,1,4.38-.54,24.13,24.13,0,0,1,4.18.31,25.27,25.27,0,0,1,3.31.82v-0.51a5.38,5.38,0,0,0-1.72-4.3,7.34,7.34,0,0,0-4.95-1.49,16.52,16.52,0,0,0-4.1.46,26.9,26.9,0,0,0-3.64,1.23l-1.69-5a28.55,28.55,0,0,1,4.61-1.64,22.81,22.81,0,0,1,5.69-.61q6,0,9,3t2.92,8.43v16h-6.15Z" transform="translate(-135 -397.76)"/><polygon class="cls-1" points="63.93 4.38 70.18 4.38 70.18 41.8 63.93 41.8 63.93 4.38 63.93 4.38"/><polygon class="cls-1" points="79.44 4.38 85.69 4.38 85.69 41.8 79.44 41.8 79.44 4.38 79.44 4.38"/><path class="cls-1" d="M248.15,424.13a10.61,10.61,0,0,0-.67-2.79,7.14,7.14,0,0,0-1.38-2.25,6.57,6.57,0,0,0-2.08-1.51,6.39,6.39,0,0,0-2.74-.56,6.25,6.25,0,0,0-4.74,2,8.91,8.91,0,0,0-2.28,5.15h13.89Zm-6.15,16a14.44,14.44,0,0,1-5.46-1,13.1,13.1,0,0,1-7.35-7.3,14.74,14.74,0,0,1-1.08-5.71V426a15.31,15.31,0,0,1,1-5.48,13.78,13.78,0,0,1,2.74-4.48,12.92,12.92,0,0,1,4.18-3,12.66,12.66,0,0,1,5.33-1.1,12.85,12.85,0,0,1,5.66,1.18,11.64,11.64,0,0,1,4,3.18,13.82,13.82,0,0,1,2.43,4.64,18.63,18.63,0,0,1,.82,5.56q0,0.41,0,.85t-0.08.9H234.31a7.91,7.91,0,0,0,2.64,5.1,7.79,7.79,0,0,0,5.15,1.77,9.07,9.07,0,0,0,4-.82,13,13,0,0,0,3.33-2.41l3.64,3.23a15,15,0,0,1-4.64,3.69,13.91,13.91,0,0,1-6.43,1.38h0Z" transform="translate(-135 -397.76)"/><path class="cls-1" d="M270.68,440.07a18,18,0,0,1-5.92-1A18.88,18.88,0,0,1,259.2,436l2.77-4.21a18,18,0,0,0,4.48,2.49,12.59,12.59,0,0,0,4.38.85,5.23,5.23,0,0,0,3.1-.79,2.49,2.49,0,0,0,1.1-2.12v-0.1a2,2,0,0,0-.49-1.33,4.09,4.09,0,0,0-1.33-1,15.5,15.5,0,0,0-1.95-.76L269,428.3q-1.49-.41-3-1a10.88,10.88,0,0,1-2.72-1.46,7.15,7.15,0,0,1-2-2.22,6.46,6.46,0,0,1-.77-3.27v-0.1a7.63,7.63,0,0,1,2.79-6,9.29,9.29,0,0,1,3.08-1.63,12.33,12.33,0,0,1,3.77-.56,17,17,0,0,1,5.18.83,18.59,18.59,0,0,1,4.77,2.28l-2.46,4.42a20.71,20.71,0,0,0-3.95-1.87A11.34,11.34,0,0,0,270,417a4.49,4.49,0,0,0-2.79.77,2.34,2.34,0,0,0-1,1.94v0.1a1.76,1.76,0,0,0,.51,1.26,5.05,5.05,0,0,0,1.36,1,14.08,14.08,0,0,0,1.95.81q1.1,0.38,2.28.74,1.49,0.46,3,1.08a12.47,12.47,0,0,1,2.69,1.51,7.37,7.37,0,0,1,2,2.17,6,6,0,0,1,.77,3.12v0.1a8.44,8.44,0,0,1-.77,3.73,7.31,7.31,0,0,1-2.13,2.64,9.69,9.69,0,0,1-3.2,1.58,14,14,0,0,1-3.95.54h0Z" transform="translate(-135 -397.76)"/><path class="cls-1" d="M300.44,440.18a14,14,0,0,1-10-4.1,13.72,13.72,0,0,1-2.95-4.46,14,14,0,0,1-1.06-5.43v-0.1a14.22,14.22,0,0,1,1.06-5.46,13.95,13.95,0,0,1,13-8.69,14.1,14.1,0,0,1,6.38,1.28,15.07,15.07,0,0,1,4.43,3.38l-3.84,4.15a14.35,14.35,0,0,0-3-2.43,7.73,7.73,0,0,0-4-.95,7.1,7.1,0,0,0-3.13.69,7.77,7.77,0,0,0-2.46,1.84,8.56,8.56,0,0,0-1.61,2.74,9.5,9.5,0,0,0-.59,3.33v0.1a9.65,9.65,0,0,0,.59,3.38,8.37,8.37,0,0,0,1.67,2.77,8,8,0,0,0,2.56,1.87,8.25,8.25,0,0,0,7.15-.26,14.87,14.87,0,0,0,3.15-2.43l3.74,3.69a17,17,0,0,1-4.56,3.66,13.41,13.41,0,0,1-6.51,1.41h0Z" transform="translate(-135 -397.76)"/><path class="cls-1" d="M318,402.15h6.25v14.6a15.31,15.31,0,0,1,1.46-1.84,9.22,9.22,0,0,1,1.84-1.52,9.43,9.43,0,0,1,2.3-1.07,9.69,9.69,0,0,1,2.84-.38,9,9,0,0,1,7.11,2.82,11,11,0,0,1,2.5,7.59v17.22H336V424.22a7.17,7.17,0,0,0-1.49-4.88,5.34,5.34,0,0,0-4.25-1.72,5.76,5.76,0,0,0-4.37,1.77,6.85,6.85,0,0,0-1.67,4.93v15.24H318V402.15h0Z" transform="translate(-135 -397.76)"/><path class="cls-1" d="M369.18,424.13a10.61,10.61,0,0,0-.67-2.79,7.14,7.14,0,0,0-1.38-2.25,6.57,6.57,0,0,0-2.08-1.51,6.39,6.39,0,0,0-2.74-.56,6.25,6.25,0,0,0-4.74,2,8.91,8.91,0,0,0-2.28,5.15h13.89Zm-6.15,16a14.44,14.44,0,0,1-5.46-1,13.1,13.1,0,0,1-7.35-7.3,14.74,14.74,0,0,1-1.08-5.71V426a15.31,15.31,0,0,1,1-5.48,13.78,13.78,0,0,1,2.74-4.48,12.92,12.92,0,0,1,4.18-3,12.66,12.66,0,0,1,5.33-1.1,12.85,12.85,0,0,1,5.66,1.18,11.64,11.64,0,0,1,4,3.18,13.82,13.82,0,0,1,2.43,4.64,18.63,18.63,0,0,1,.82,5.56q0,0.41,0,.85t-0.08.9H355.35a7.91,7.91,0,0,0,2.64,5.1,7.79,7.79,0,0,0,5.15,1.77,9.07,9.07,0,0,0,4-.82,13,13,0,0,0,3.33-2.41l3.64,3.23a15,15,0,0,1-4.64,3.69,13.91,13.91,0,0,1-6.43,1.38h0Z" transform="translate(-135 -397.76)"/><path class="cls-2" d="M444.9,440.12a9,9,0,0,1-7.11-2.82,11,11,0,0,1-2.5-7.59V412.5h6.25v15.34a7.17,7.17,0,0,0,1.49,4.88,5.34,5.34,0,0,0,4.25,1.72,5.76,5.76,0,0,0,4.37-1.77,6.85,6.85,0,0,0,1.67-4.93V412.5h6.25v27.06h-6.25v-4.25A13.29,13.29,0,0,1,450,438.7a8.58,8.58,0,0,1-5.11,1.43h0Zm-38-8.61H388.77L387.59,427l19.94-23.58h5.38v22.91H418v5.18h-5.13v8h-6v-8h0Zm0-5.18v-14.2l-11.79,14.2h11.79Zm-4-28.58a23.73,23.73,0,1,0,23.73,23.73,23.73,23.73,0,0,0-23.73-23.73h0Z" transform="translate(-135 -397.76)"/></svg>