<?xml version="1.0" encoding="UTF-8"?>
<svg version="1.1" viewBox="0 0 24 24" xmlns="http://www.w3.org/2000/svg">
<path d="m12.35 0.0058594c-6.6242-0.19345-12.15 5.0201-12.344 11.645-0.19345 6.6249 5.0203 12.151 11.645 12.344 6.6244 0.19345 12.15-5.0196 12.344-11.645 0.19345-6.6244-5.0199-12.151-11.645-12.344zm-0.21289 6.2676c2.7664 0 5.0098 0.8517 5.0098 1.9023 0 1.0504-2.2434 1.9023-5.0098 1.9023-2.7659 0-5.0078-0.85193-5.0078-1.9023 1e-7 -1.0506 2.2419-1.9023 5.0078-1.9023zm0.63281 0.75781c-1.0035 0-1.8569 0.14365-2.4648 0.38477-0.342 0.13998-0.59818 0.31224-0.73633 0.51562h-0.7168v0.26758h0.59766c-2e-7 0.038623-0.0097657 0.075328-0.0097657 0.11328v0.064453h-0.58789v0.26758h0.69531c0.096075 0.19959 0.30921 0.36231 0.59766 0.49023 0.59715 0.27907 1.5573 0.42969 2.6035 0.42969 0.68332 0 1.3035-0.070913 1.666-0.14258l-0.25781-0.41797c-0.22365 0.041525-0.72562 0.097656-1.2168 0.097656-0.53392 0-1.0345-0.05695-1.377-0.19336-0.15952-0.063628-0.27641-0.1507-0.35156-0.26367h2.6797v-0.26758h-2.8281v-0.060547c0-0.03773-0.001034-0.078564 0.009766-0.11719h2.8184v-0.26758h-2.6582c0.075375-0.09734 0.19195-0.18453 0.3418-0.24414 0.33098-0.14422 0.80062-0.20508 1.3125-0.20508 0.47025 0 0.90812 0.050271 1.1855 0.091797l0.29883-0.42969c-0.3843-0.060726-0.95041-0.11328-1.6016-0.11328zm-5.6406 2.2324c9.001e-4 0.16677 0.063344 0.32687 0.16797 0.48047 0.12195 0.17414 0.30514 0.33909 0.54297 0.49023 0.87412 0.55546 2.4683 0.92773 4.2969 0.92773 1.8281 0 3.423-0.37227 4.2969-0.92773 0.2385-0.15114 0.42237-0.31609 0.54297-0.49023 0.099226-0.144 0.15646-0.29233 0.16406-0.44727v1.0625c0 0.01183 0.003906 0.022876 0.003906 0.035156 0 1.0504-2.2414 1.9023-5.0078 1.9023-2.7614 0-4.9982-0.8483-5.0059-1.8965l-0.0019532-0.001953v-0.007813-1.127zm0 2.127c9.001e-4 0.1661 0.063344 0.32425 0.16797 0.47852 0.12195 0.17414 0.30514 0.33887 0.54297 0.49023 0.87412 0.55546 2.4683 0.92969 4.2969 0.92969 1.8281 2e-6 3.423-0.37423 4.2969-0.92969 0.2385-0.15137 0.42237-0.31609 0.54297-0.49023 0.099226-0.14378 0.15646-0.293 0.16406-0.44727v1.0625c0 0.01228 0.003906 0.023766 0.003906 0.035156 0 1.0506-2.2414 1.9023-5.0078 1.9023-2.7614 0-4.9982-0.84612-5.0059-1.8945l-0.0019532-0.001953v-0.007813-1.127zm0 2.125c9.001e-4 0.16655 0.063344 0.32687 0.16797 0.48047 0.12195 0.17436 0.30514 0.33887 0.54297 0.49023 0.87412 0.55501 2.4683 0.92773 4.2969 0.92773 1.8281 2e-6 3.423-0.37272 4.2969-0.92773 0.2385-0.15137 0.42237-0.31587 0.54297-0.49023 0.099226-0.14378 0.15646-0.2945 0.16406-0.44922v1.0645c0 0.01184 0.003906 0.023326 0.003906 0.035156 0 1.0504-2.2414 1.9023-5.0078 1.9023-2.7614 0-4.9982-0.84852-5.0059-1.8965l-0.0019532-0.001953v-0.007813-1.127zm0 2.127c9.001e-4 0.16633 0.063344 0.32447 0.16797 0.47852 0.12195 0.17436 0.30514 0.33998 0.54297 0.49023 0.87412 0.55613 2.4683 0.92773 4.2969 0.92773 1.8281 0 3.423-0.3716 4.2969-0.92773 0.2385-0.15025 0.42237-0.31587 0.54297-0.49023 0.099226-0.14355 0.15646-0.29233 0.16406-0.44727v1.0625c0 0.0125 0.003906 0.023096 0.003906 0.035156 0 1.0506-2.2414 1.9023-5.0078 1.9023-2.7614 0-4.9982-0.84702-5.0059-1.8945l-0.0019532-0.001953v-0.009766-1.125z" fill-rule="evenodd"/>
</svg>
